<svg width="171" height="56" viewBox="0 0 171 56" fill="none" xmlns="http://www.w3.org/2000/svg">
<rect width="171" height="56" rx="28" fill="#6C6C6C"/>
<path d="M37.752 37.12C34.664 37.12 32.256 36.392 30.528 34.936C28.816 33.464 27.96 31.288 27.96 28.408C27.96 25.544 28.816 23.384 30.528 21.928C32.256 20.456 34.664 19.72 37.752 19.72H40.872C43.976 19.72 46.384 20.456 48.096 21.928C49.808 23.384 50.664 25.544 50.664 28.408C50.664 31.288 49.808 33.464 48.096 34.936C46.384 36.392 43.976 37.12 40.872 37.12H37.752ZM31.872 28.408C31.872 30.152 32.296 31.48 33.144 32.392L42.552 23.008C41.976 22.896 41.328 22.84 40.608 22.84H38.016C36 22.84 34.472 23.28 33.432 24.16C32.392 25.04 31.872 26.456 31.872 28.408ZM38.016 34H40.608C42.624 34 44.152 33.56 45.192 32.68C46.232 31.784 46.752 30.36 46.752 28.408C46.752 26.664 46.32 25.336 45.456 24.424L36.024 33.832C36.616 33.944 37.28 34 38.016 34ZM56.2343 37V23.008H51.1463V19.888H59.9543V37H56.2343ZM71.7113 37V19.84H75.5993L87.7433 32.176V19.84H91.5833V37H87.6953L75.5513 24.64V37H71.7113ZM100.914 37.12C98.7698 37.12 97.0978 36.592 95.8978 35.536C94.6978 34.464 94.0978 32.896 94.0978 30.832C94.0978 28.752 94.6978 27.184 95.8978 26.128C97.0978 25.056 98.7698 24.52 100.914 24.52H105.354C107.498 24.52 109.17 25.056 110.37 26.128C111.57 27.184 112.17 28.752 112.17 30.832C112.17 32.896 111.57 34.464 110.37 35.536C109.17 36.592 107.498 37.12 105.354 37.12H100.914ZM100.914 34.36H105.354C106.394 34.36 107.186 34.072 107.73 33.496C108.29 32.92 108.57 32.032 108.57 30.832C108.57 29.616 108.29 28.72 107.73 28.144C107.186 27.568 106.394 27.28 105.354 27.28H100.914C99.8738 27.28 99.0738 27.568 98.5138 28.144C97.9698 28.72 97.6978 29.616 97.6978 30.832C97.6978 32.032 97.9698 32.92 98.5138 33.496C99.0738 34.072 99.8738 34.36 100.914 34.36ZM118.229 37L113.021 24.64H116.669L120.701 34.216H121.901L125.933 24.64H129.581L124.373 37H118.229ZM129.831 37V33.568H133.671V37H129.831Z" fill="#00FFDD"/>
</svg>
