<svg width="171" height="56" viewBox="0 0 171 56" fill="none" xmlns="http://www.w3.org/2000/svg">
<rect width="171" height="56" rx="28" fill="#6C6C6C"/>
<path d="M29.752 37.12C26.664 37.12 24.256 36.392 22.528 34.936C20.816 33.464 19.96 31.288 19.96 28.408C19.96 25.544 20.816 23.384 22.528 21.928C24.256 20.456 26.664 19.72 29.752 19.72H32.872C35.976 19.72 38.384 20.456 40.096 21.928C41.808 23.384 42.664 25.544 42.664 28.408C42.664 31.288 41.808 33.464 40.096 34.936C38.384 36.392 35.976 37.12 32.872 37.12H29.752ZM23.872 28.408C23.872 30.152 24.296 31.48 25.144 32.392L34.552 23.008C33.976 22.896 33.328 22.84 32.608 22.84H30.016C28 22.84 26.472 23.28 25.432 24.16C24.392 25.04 23.872 26.456 23.872 28.408ZM30.016 34H32.608C34.624 34 36.152 33.56 37.192 32.68C38.232 31.784 38.752 30.36 38.752 28.408C38.752 26.664 38.32 25.336 37.456 24.424L28.024 33.832C28.616 33.944 29.28 34 30.016 34ZM44.3528 37V33.88H57.5528C58.1608 33.88 58.6168 33.712 58.9208 33.376C59.2248 33.024 59.3768 32.544 59.3768 31.936C59.3768 31.312 59.2248 30.824 58.9208 30.472C58.6168 30.12 58.1608 29.944 57.5528 29.944H46.6088V26.848H57.5288C58.7608 26.848 59.3768 26.2 59.3768 24.904C59.3768 23.624 58.7608 22.984 57.5288 22.984H44.3528V19.864H58.2488C59.9128 19.864 61.2008 20.28 62.1128 21.112C63.0408 21.928 63.5048 23.072 63.5048 24.544C63.5048 25.344 63.3528 26.104 63.0488 26.824C62.7448 27.528 62.2408 28.048 61.5368 28.384C62.2408 28.736 62.7448 29.256 63.0488 29.944C63.3528 30.616 63.5048 31.36 63.5048 32.176C63.5048 33.632 63.0408 34.8 62.1128 35.68C61.2008 36.56 59.9128 37 58.2488 37H44.3528ZM74.305 37V19.84H78.193L90.337 32.176V19.84H94.177V37H90.289L78.145 24.64V37H74.305ZM103.508 37.12C101.364 37.12 99.6916 36.592 98.4916 35.536C97.2916 34.464 96.6916 32.896 96.6916 30.832C96.6916 28.752 97.2916 27.184 98.4916 26.128C99.6916 25.056 101.364 24.52 103.508 24.52H107.948C110.092 24.52 111.764 25.056 112.964 26.128C114.164 27.184 114.764 28.752 114.764 30.832C114.764 32.896 114.164 34.464 112.964 35.536C111.764 36.592 110.092 37.12 107.948 37.12H103.508ZM103.508 34.36H107.948C108.988 34.36 109.78 34.072 110.324 33.496C110.884 32.92 111.164 32.032 111.164 30.832C111.164 29.616 110.884 28.72 110.324 28.144C109.78 27.568 108.988 27.28 107.948 27.28H103.508C102.468 27.28 101.668 27.568 101.108 28.144C100.564 28.72 100.292 29.616 100.292 30.832C100.292 32.032 100.564 32.92 101.108 33.496C101.668 34.072 102.468 34.36 103.508 34.36ZM120.823 37L115.615 24.64H119.263L123.295 34.216H124.495L128.527 24.64H132.175L126.967 37H120.823ZM132.424 37V33.568H136.264V37H132.424Z" fill="#00FFDD"/>
</svg>
