<svg width="171" height="56" viewBox="0 0 171 56" fill="none" xmlns="http://www.w3.org/2000/svg">
<rect width="171" height="56" rx="28" fill="#6C6C6C"/>
<path d="M29.752 37.12C26.664 37.12 24.256 36.392 22.528 34.936C20.816 33.464 19.96 31.288 19.96 28.408C19.96 25.544 20.816 23.384 22.528 21.928C24.256 20.456 26.664 19.72 29.752 19.72H32.872C35.976 19.72 38.384 20.456 40.096 21.928C41.808 23.384 42.664 25.544 42.664 28.408C42.664 31.288 41.808 33.464 40.096 34.936C38.384 36.392 35.976 37.12 32.872 37.12H29.752ZM23.872 28.408C23.872 30.152 24.296 31.48 25.144 32.392L34.552 23.008C33.976 22.896 33.328 22.84 32.608 22.84H30.016C28 22.84 26.472 23.28 25.432 24.16C24.392 25.04 23.872 26.456 23.872 28.408ZM30.016 34H32.608C34.624 34 36.152 33.56 37.192 32.68C38.232 31.784 38.752 30.36 38.752 28.408C38.752 26.664 38.32 25.336 37.456 24.424L28.024 33.832C28.616 33.944 29.28 34 30.016 34ZM46.4935 37L58.1095 23.008H43.2775V19.888H62.7175V23.032L51.1255 37H46.4935ZM73.1566 37V19.84H75.9886L83.6686 19.816C86.7726 19.816 89.1806 20.544 90.8926 22C92.6046 23.456 93.4606 25.592 93.4606 28.408C93.4606 31.224 92.6046 33.36 90.8926 34.816C89.1806 36.272 86.7726 37 83.6686 37H73.1566ZM83.4046 22.936H76.9966V33.88H83.4046C85.4206 33.88 86.9486 33.44 87.9886 32.56C89.0286 31.68 89.5486 30.296 89.5486 28.408C89.5486 26.504 89.0286 25.12 87.9886 24.256C86.9486 23.376 85.4206 22.936 83.4046 22.936ZM101.844 37.12C99.6995 37.12 98.0275 36.592 96.8275 35.536C95.6275 34.464 95.0275 32.896 95.0275 30.832C95.0275 28.752 95.6275 27.184 96.8275 26.128C98.0275 25.056 99.6995 24.52 101.844 24.52H107.844C109.252 24.52 110.324 24.856 111.06 25.528C111.812 26.184 112.188 27.128 112.188 28.36C112.188 30.872 110.74 32.128 107.844 32.128H98.7715C99.1075 33.616 100.132 34.36 101.844 34.36H111.564V37.12H101.844ZM101.844 27.28C100.196 27.28 99.1795 27.976 98.7955 29.368H107.676C107.996 29.368 108.244 29.272 108.42 29.08C108.612 28.888 108.708 28.624 108.708 28.288C108.708 27.616 108.364 27.28 107.676 27.28H101.844ZM120.687 37.12C118.543 37.12 116.871 36.592 115.671 35.536C114.471 34.464 113.871 32.896 113.871 30.832C113.871 28.752 114.471 27.184 115.671 26.128C116.871 25.056 118.543 24.52 120.687 24.52H128.727V27.28H120.687C119.647 27.28 118.847 27.568 118.287 28.144C117.743 28.72 117.471 29.616 117.471 30.832C117.471 32.032 117.743 32.92 118.287 33.496C118.847 34.072 119.647 34.36 120.687 34.36H128.967V37.12H120.687ZM130.878 37V33.568H134.718V37H130.878Z" fill="#00FFDD"/>
</svg>
