<svg width="171" height="56" viewBox="0 0 171 56" fill="none" xmlns="http://www.w3.org/2000/svg">
<rect width="171" height="56" rx="28" fill="#6C6C6C"/>
<path d="M24.328 37V23.008H19.24V19.888H28.048V37H24.328ZM40.4864 37.12C37.3984 37.12 34.9904 36.392 33.2624 34.936C31.5504 33.464 30.6944 31.288 30.6944 28.408C30.6944 25.544 31.5504 23.384 33.2624 21.928C34.9904 20.456 37.3984 19.72 40.4864 19.72H43.6064C46.7104 19.72 49.1184 20.456 50.8304 21.928C52.5424 23.384 53.3984 25.544 53.3984 28.408C53.3984 31.288 52.5424 33.464 50.8304 34.936C49.1184 36.392 46.7104 37.12 43.6064 37.12H40.4864ZM34.6064 28.408C34.6064 30.152 35.0304 31.48 35.8784 32.392L45.2864 23.008C44.7104 22.896 44.0624 22.84 43.3424 22.84H40.7504C38.7344 22.84 37.2064 23.28 36.1664 24.16C35.1264 25.04 34.6064 26.456 34.6064 28.408ZM40.7504 34H43.3424C45.3584 34 46.8864 33.56 47.9264 32.68C48.9664 31.784 49.4864 30.36 49.4864 28.408C49.4864 26.664 49.0544 25.336 48.1904 24.424L38.7584 33.832C39.3504 33.944 40.0144 34 40.7504 34ZM64.4378 37V19.84H68.3258L80.4698 32.176V19.84H84.3098V37H80.4218L68.2778 24.64V37H64.4378ZM93.6404 37.12C91.4964 37.12 89.8244 36.592 88.6244 35.536C87.4244 34.464 86.8244 32.896 86.8244 30.832C86.8244 28.752 87.4244 27.184 88.6244 26.128C89.8244 25.056 91.4964 24.52 93.6404 24.52H98.0804C100.224 24.52 101.896 25.056 103.096 26.128C104.296 27.184 104.896 28.752 104.896 30.832C104.896 32.896 104.296 34.464 103.096 35.536C101.896 36.592 100.224 37.12 98.0804 37.12H93.6404ZM93.6404 34.36H98.0804C99.1204 34.36 99.9124 34.072 100.456 33.496C101.016 32.92 101.296 32.032 101.296 30.832C101.296 29.616 101.016 28.72 100.456 28.144C99.9124 27.568 99.1204 27.28 98.0804 27.28H93.6404C92.6004 27.28 91.8004 27.568 91.2404 28.144C90.6964 28.72 90.4244 29.616 90.4244 30.832C90.4244 32.032 90.6964 32.92 91.2404 33.496C91.8004 34.072 92.6004 34.36 93.6404 34.36ZM110.956 37L105.748 24.64H109.396L113.428 34.216H114.628L118.66 24.64H122.308L117.1 37H110.956ZM122.557 37V33.568H126.397V37H122.557Z" fill="#00FFDD"/>
</svg>
