<svg width="171" height="56" viewBox="0 0 171 56" fill="none" xmlns="http://www.w3.org/2000/svg">
<rect width="171" height="56" rx="28" fill="#6C6C6C"/>
<path d="M24.328 37V23.008H19.24V19.888H28.048V37H24.328ZM33.7904 37L45.4064 23.008H30.5744V19.888H50.0144V23.032L38.4224 37H33.7904ZM60.4534 37V19.84H64.3414L76.4854 32.176V19.84H80.3254V37H76.4374L64.2934 24.64V37H60.4534ZM89.656 37.12C87.512 37.12 85.84 36.592 84.64 35.536C83.44 34.464 82.84 32.896 82.84 30.832C82.84 28.752 83.44 27.184 84.64 26.128C85.84 25.056 87.512 24.52 89.656 24.52H94.096C96.24 24.52 97.912 25.056 99.112 26.128C100.312 27.184 100.912 28.752 100.912 30.832C100.912 32.896 100.312 34.464 99.112 35.536C97.912 36.592 96.24 37.12 94.096 37.12H89.656ZM89.656 34.36H94.096C95.136 34.36 95.928 34.072 96.472 33.496C97.032 32.92 97.312 32.032 97.312 30.832C97.312 29.616 97.032 28.72 96.472 28.144C95.928 27.568 95.136 27.28 94.096 27.28H89.656C88.616 27.28 87.816 27.568 87.256 28.144C86.712 28.72 86.44 29.616 86.44 30.832C86.44 32.032 86.712 32.92 87.256 33.496C87.816 34.072 88.616 34.36 89.656 34.36ZM106.971 37L101.763 24.64H105.411L109.443 34.216H110.643L114.675 24.64H118.323L113.115 37H106.971ZM118.573 37V33.568H122.413V37H118.573Z" fill="#00FFDD"/>
</svg>
