<svg width="171" height="56" viewBox="0 0 171 56" fill="none" xmlns="http://www.w3.org/2000/svg">
<path d="M0 28C0 12.536 12.536 0 28 0H143C158.464 0 171 12.536 171 28C171 43.464 158.464 56 143 56H28C12.536 56 0 43.464 0 28Z" fill="#6C6C6C"/>
<path d="M27.72 37V31.912C27.72 30.312 28.168 29.072 29.064 28.192C29.96 27.312 31.264 26.872 32.976 26.872H40.872C42.392 26.872 43.152 26.224 43.152 24.928C43.152 23.632 42.392 22.984 40.872 22.984H28.104V19.864H41.616C43.28 19.864 44.568 20.312 45.48 21.208C46.408 22.104 46.872 23.344 46.872 24.928C46.872 26.512 46.408 27.752 45.48 28.648C44.568 29.544 43.28 29.992 41.616 29.992H33.504C32.816 29.992 32.296 30.168 31.944 30.52C31.608 30.856 31.44 31.336 31.44 31.96V33.904H46.416V37H27.72Z" fill="#00FFDD"/>
<path d="M48.5616 33.856V30.712L57.5856 19.864H62.3136L53.1456 30.736H62.4096V26.8H66.1296V30.736H70.1616V33.856H66.1296V37H62.4096V33.856H48.5616Z" fill="#00FFDD"/>
<path d="M89.4924 37.12C86.4364 37.12 84.0684 36.392 82.3884 34.936C80.7084 33.464 79.8684 31.288 79.8684 28.408C79.8684 25.544 80.7084 23.384 82.3884 21.928C84.0684 20.456 86.4924 19.72 89.6604 19.72H93.9804C97.1484 19.72 99.5724 20.456 101.252 21.928C102.932 23.384 103.772 25.544 103.772 28.408C103.772 31.288 102.932 33.464 101.252 34.936C99.5724 36.392 97.1884 37.12 94.1004 37.12H89.4924ZM89.9244 22.84C88.1484 22.84 86.7644 23.16 85.7724 23.8C84.7804 24.44 84.1564 25.456 83.9004 26.848H99.7404C99.4844 25.456 98.8604 24.44 97.8684 23.8C96.8764 23.16 95.4924 22.84 93.7164 22.84H89.9244ZM89.9964 34H93.7164C95.5084 34 96.8924 33.68 97.8684 33.04C98.8604 32.4 99.4844 31.376 99.7404 29.968H83.9004C84.1564 31.376 84.7804 32.4 85.7724 33.04C86.7644 33.68 88.1724 34 89.9964 34Z" fill="#00FFDD"/>
<path d="M112.14 37.12C109.996 37.12 108.324 36.592 107.124 35.536C105.924 34.464 105.324 32.896 105.324 30.832C105.324 28.752 105.924 27.184 107.124 26.128C108.324 25.056 109.996 24.52 112.14 24.52H120.18V27.28H112.14C111.1 27.28 110.3 27.568 109.74 28.144C109.196 28.72 108.924 29.616 108.924 30.832C108.924 32.032 109.196 32.92 109.74 33.496C110.3 34.072 111.1 34.36 112.14 34.36H120.42V37.12H112.14Z" fill="#00FFDD"/>
<path d="M129.111 37C127.719 37 126.695 36.656 126.039 35.968C125.383 35.264 125.055 34.344 125.055 33.208V27.4H121.479V24.64H125.055V20.848H128.535V24.64H133.671V27.4H128.535V32.776C128.535 33.752 129.015 34.24 129.975 34.24H134.343V37H129.111Z" fill="#00FFDD"/>
<path d="M136.253 37V33.568H140.092V37H136.253Z" fill="#00FFDD"/>
</svg>
