<svg width="171" height="56" viewBox="0 0 171 56" fill="none" xmlns="http://www.w3.org/2000/svg">
<rect width="171" height="56" rx="28" fill="#6C6C6C"/>
<path d="M27.72 37V31.912C27.72 30.312 28.168 29.072 29.064 28.192C29.96 27.312 31.264 26.872 32.976 26.872H40.872C42.392 26.872 43.152 26.224 43.152 24.928C43.152 23.632 42.392 22.984 40.872 22.984H28.104V19.864H41.616C43.28 19.864 44.568 20.312 45.48 21.208C46.408 22.104 46.872 23.344 46.872 24.928C46.872 26.512 46.408 27.752 45.48 28.648C44.568 29.544 43.28 29.992 41.616 29.992H33.504C32.816 29.992 32.296 30.168 31.944 30.52C31.608 30.856 31.44 31.336 31.44 31.96V33.904H46.416V37H27.72ZM56.4336 37.024C53.9376 37.024 52.0016 36.272 50.6256 34.768C49.2496 33.248 48.5616 31.128 48.5616 28.408C48.5616 25.448 49.4176 23.28 51.1296 21.904C52.8576 20.528 55.2656 19.84 58.3536 19.84H68.0256V22.96H58.6176C56.8736 22.96 55.4896 23.256 54.4656 23.848C53.4576 24.424 52.8336 25.44 52.5936 26.896H63.8016C65.5776 26.896 66.9776 27.344 68.0016 28.24C69.0256 29.12 69.5376 30.344 69.5376 31.912C69.5376 33.528 69.0256 34.784 68.0016 35.68C66.9776 36.576 65.5776 37.024 63.8016 37.024H56.4336ZM56.6976 33.904H63.0576C63.9376 33.904 64.6176 33.744 65.0976 33.424C65.5776 33.088 65.8176 32.592 65.8176 31.936C65.8176 31.296 65.5776 30.816 65.0976 30.496C64.6176 30.176 63.9376 30.016 63.0576 30.016H52.5936C52.9616 32.608 54.3296 33.904 56.6976 33.904ZM89.0003 37.12C85.9443 37.12 83.5763 36.392 81.8963 34.936C80.2163 33.464 79.3763 31.288 79.3763 28.408C79.3763 25.544 80.2163 23.384 81.8963 21.928C83.5763 20.456 86.0003 19.72 89.1683 19.72H93.4883C96.6563 19.72 99.0803 20.456 100.76 21.928C102.44 23.384 103.28 25.544 103.28 28.408C103.28 31.288 102.44 33.464 100.76 34.936C99.0803 36.392 96.6963 37.12 93.6083 37.12H89.0003ZM89.4323 22.84C87.6563 22.84 86.2723 23.16 85.2803 23.8C84.2883 24.44 83.6643 25.456 83.4083 26.848H99.2483C98.9923 25.456 98.3683 24.44 97.3763 23.8C96.3843 23.16 95.0003 22.84 93.2243 22.84H89.4323ZM89.5043 34H93.2243C95.0163 34 96.4003 33.68 97.3763 33.04C98.3683 32.4 98.9923 31.376 99.2483 29.968H83.4083C83.6643 31.376 84.2883 32.4 85.2803 33.04C86.2723 33.68 87.6803 34 89.5043 34ZM111.648 37.12C109.504 37.12 107.832 36.592 106.632 35.536C105.432 34.464 104.832 32.896 104.832 30.832C104.832 28.752 105.432 27.184 106.632 26.128C107.832 25.056 109.504 24.52 111.648 24.52H119.688V27.28H111.648C110.608 27.28 109.808 27.568 109.248 28.144C108.704 28.72 108.432 29.616 108.432 30.832C108.432 32.032 108.704 32.92 109.248 33.496C109.808 34.072 110.608 34.36 111.648 34.36H119.928V37.12H111.648ZM128.619 37C127.227 37 126.203 36.656 125.547 35.968C124.891 35.264 124.563 34.344 124.563 33.208V27.4H120.987V24.64H124.563V20.848H128.043V24.64H133.179V27.4H128.043V32.776C128.043 33.752 128.523 34.24 129.483 34.24H133.851V37H128.619ZM135.76 37V33.568H139.6V37H135.76Z" fill="#00FFDD"/>
</svg>
