<svg width="171" height="56" viewBox="0 0 171 56" fill="none" xmlns="http://www.w3.org/2000/svg">
<rect width="171" height="56" rx="28" fill="#6C6C6C"/>
<path d="M27.72 37V31.912C27.72 30.312 28.168 29.072 29.064 28.192C29.96 27.312 31.264 26.872 32.976 26.872H40.872C42.392 26.872 43.152 26.224 43.152 24.928C43.152 23.632 42.392 22.984 40.872 22.984H28.104V19.864H41.616C43.28 19.864 44.568 20.312 45.48 21.208C46.408 22.104 46.872 23.344 46.872 24.928C46.872 26.512 46.408 27.752 45.48 28.648C44.568 29.544 43.28 29.992 41.616 29.992H33.504C32.816 29.992 32.296 30.168 31.944 30.52C31.608 30.856 31.44 31.336 31.44 31.96V33.904H46.416V37H27.72ZM51.1888 37L62.8048 23.008H47.9728V19.888H67.4128V23.032L55.8208 37H51.1888ZM86.5159 37.12C83.4599 37.12 81.0919 36.392 79.4119 34.936C77.7319 33.464 76.8919 31.288 76.8919 28.408C76.8919 25.544 77.7319 23.384 79.4119 21.928C81.0919 20.456 83.5159 19.72 86.6839 19.72H91.0039C94.1719 19.72 96.5959 20.456 98.2759 21.928C99.9559 23.384 100.796 25.544 100.796 28.408C100.796 31.288 99.9559 33.464 98.2759 34.936C96.5959 36.392 94.2119 37.12 91.1239 37.12H86.5159ZM86.9479 22.84C85.1719 22.84 83.7879 23.16 82.7959 23.8C81.8039 24.44 81.1799 25.456 80.9239 26.848H96.7639C96.5079 25.456 95.8839 24.44 94.8919 23.8C93.8999 23.16 92.5159 22.84 90.7399 22.84H86.9479ZM87.0199 34H90.7399C92.5319 34 93.9159 33.68 94.8919 33.04C95.8839 32.4 96.5079 31.376 96.7639 29.968H80.9239C81.1799 31.376 81.8039 32.4 82.7959 33.04C83.7879 33.68 85.1959 34 87.0199 34ZM109.164 37.12C107.02 37.12 105.348 36.592 104.148 35.536C102.948 34.464 102.348 32.896 102.348 30.832C102.348 28.752 102.948 27.184 104.148 26.128C105.348 25.056 107.02 24.52 109.164 24.52H117.204V27.28H109.164C108.124 27.28 107.324 27.568 106.764 28.144C106.22 28.72 105.948 29.616 105.948 30.832C105.948 32.032 106.22 32.92 106.764 33.496C107.324 34.072 108.124 34.36 109.164 34.36H117.444V37.12H109.164ZM126.135 37C124.743 37 123.719 36.656 123.063 35.968C122.407 35.264 122.079 34.344 122.079 33.208V27.4H118.503V24.64H122.079V20.848H125.559V24.64H130.695V27.4H125.559V32.776C125.559 33.752 126.039 34.24 126.999 34.24H131.367V37H126.135ZM133.276 37V33.568H137.116V37H133.276Z" fill="#00FFDD"/>
</svg>
