<?xml version="1.0" encoding="UTF-8"?>
<svg width="1458px" height="377px" viewBox="0 0 1458 377" version="1.1" xmlns="http://www.w3.org/2000/svg" xmlns:xlink="http://www.w3.org/1999/xlink">
    <title>Group</title>
    <defs>
        <linearGradient x1="50%" y1="0%" x2="50%" y2="100%" id="linearGradient-1">
            <stop stop-color="#FF7F00" offset="0%"></stop>
            <stop stop-color="#FF441E" offset="100%"></stop>
        </linearGradient>
        <linearGradient x1="13.6874806%" y1="109.020603%" x2="92.6210185%" y2="18.9436192%" id="linearGradient-2">
            <stop stop-color="#FF670D" offset="26.0417%"></stop>
            <stop stop-color="#FF5317" offset="100%"></stop>
        </linearGradient>
        <linearGradient x1="14.8068641%" y1="49.9944485%" x2="36.5019696%" y2="15.019421%" id="linearGradient-3">
            <stop stop-color="#FF7207" offset="0%"></stop>
            <stop stop-color="#FF7208" stop-opacity="0" offset="100%"></stop>
        </linearGradient>
        <radialGradient cx="9.91376731%" cy="54.7248927%" fx="9.91376731%" fy="54.7248927%" r="9.79653005%" gradientTransform="translate(0.099138,0.547249),scale(0.925019,1.000000),rotate(2.726330),translate(-0.099138,-0.547249)" id="radialGradient-4">
            <stop stop-color="#FF7307" offset="0%"></stop>
            <stop stop-color="#FF7408" stop-opacity="0" offset="100%"></stop>
        </radialGradient>
        <linearGradient x1="3.7374887%" y1="92.7830178%" x2="100%" y2="38.4409786%" id="linearGradient-5">
            <stop stop-color="#FF8000" offset="0%"></stop>
            <stop stop-color="#FF4020" offset="100%"></stop>
        </linearGradient>
    </defs>
    <g id="Page-1" stroke="none" stroke-width="1" fill="none" fill-rule="evenodd">
        <g id="Group">
            <path d="M551.203,22.3298663 L528.498,22.3298663 L528.498,144.642066 L551.203,144.642066 L551.203,22.3298663 Z M634.853,61.8200663 L702.264,144.642066 L720.953,144.642066 L720.953,22.3298663 L698.423,22.3298663 L698.423,105.152066 L631.012,22.3298663 L612.323,22.3298663 L612.323,144.642066 L634.853,144.642066 L634.853,61.8200663 Z M848.786,80.7793663 C842.963,78.5091663 835.515,76.3238663 826.43,74.2283663 C819.795,72.5968663 814.556,71.1449663 810.715,69.8577663 C806.873,68.5755663 803.7,66.8292663 801.196,64.6140663 C798.691,62.4037663 797.439,59.5449663 797.439,56.0524663 C797.439,51.0431663 799.624,47.0268663 803.99,43.9983663 C808.355,40.9698663 815.02,39.4530663 823.985,39.4530663 C829.458,39.4530663 835.101,40.2713663 840.923,41.8978663 C846.745,43.5293663 852.333,45.9141663 857.686,49.0624663 L864.845,31.4153663 C859.607,27.9228663 853.375,25.2435663 846.156,23.3776663 C838.937,21.5165663 831.603,20.5836663 824.15,20.5836663 C813.439,20.5836663 804.384,22.2150663 796.995,25.4780663 C789.601,28.7410663 784.073,33.1366663 780.407,38.6697663 C776.74,44.2028663 774.904,50.3496663 774.904,57.1051663 C774.904,65.1428663 776.969,71.5191663 781.105,76.2390663 C785.236,80.9589663 790.185,84.4264663 795.947,86.6367663 C801.71,88.8519663 809.248,91.0671663 818.562,93.2774663 C825.198,94.9089663 830.436,96.3658663 834.278,97.6480663 C838.119,98.9303663 841.292,100.706066 843.797,102.977066 C846.301,105.247066 847.553,108.130066 847.553,111.628066 C847.553,116.408066 845.308,120.249066 840.828,123.158066 C836.343,126.072066 829.563,127.529066 820.483,127.529066 C813.149,127.529066 805.84,126.277066 798.566,123.772066 C791.288,121.267066 785.146,118.034066 780.142,114.073066 L772.285,131.720066 C777.408,136.150066 784.363,139.698066 793.153,142.377066 C801.944,145.056066 811.054,146.398066 820.483,146.398066 C831.194,146.398066 840.274,144.767066 847.728,141.504066 C855.176,138.246066 860.739,133.875066 864.406,128.397066 C868.073,122.924066 869.909,116.807066 869.909,110.051066 C869.909,102.133066 867.838,95.8419663 863.708,91.1819663 C859.572,86.5219663 854.598,83.0594663 848.776,80.7842663 L848.786,80.7793663 Z M939.246,144.642066 L961.951,144.642066 L961.951,41.5485663 L1002.47,41.5485663 L1002.47,22.3298663 L898.73,22.3298663 L898.73,41.5485663 L939.246,41.5485663 L939.246,144.637066 L939.246,144.642066 Z M1074.42,22.3298663 L1019.4,144.642066 L1042.81,144.642066 L1085.42,45.0460663 L1128.2,144.642066 L1151.96,144.642066 L1096.77,22.3298663 L1074.41,22.3298663 L1074.42,22.3298663 Z M1283.46,105.152066 L1216.05,22.3298663 L1197.36,22.3298663 L1197.36,144.642066 L1219.89,144.642066 L1219.89,61.8200663 L1287.3,144.642066 L1305.99,144.642066 L1305.99,22.3298663 L1283.46,22.3298663 L1283.46,105.152066 Z M1392.43,144.642066 L1415.14,144.642066 L1415.14,41.5485663 L1455.66,41.5485663 L1455.66,22.3298663 L1351.92,22.3298663 L1351.92,41.5485663 L1392.43,41.5485663 L1392.43,144.637066 L1392.43,144.642066 Z M569.712,255.594066 C576.407,251.987066 584.06,250.175066 592.676,250.175066 C605.832,250.175066 617.067,254.835066 626.382,264.155066 L640.7,250.175066 C634.993,243.654066 627.953,238.705066 619.567,235.322066 C611.185,231.945066 601.866,230.253066 591.624,230.253066 C579.051,230.253066 567.726,232.962066 557.659,238.376066 C547.586,243.794066 539.698,251.278066 533.996,260.828066 C528.288,270.382066 525.44,281.154066 525.44,293.153066 C525.44,305.152066 528.293,315.929066 533.996,325.479066 C539.698,335.033066 547.556,342.517066 557.574,347.930066 C567.587,353.349066 578.822,356.053066 591.279,356.053066 C600.125,356.053066 608.746,354.711066 617.127,352.037066 C625.509,349.357066 632.842,345.516066 639.134,340.506066 L639.134,291.756066 L617.651,291.756066 L617.651,329.849066 C610.432,334.045066 602.051,336.141066 592.502,336.141066 C584,336.141066 576.407,334.280066 569.712,330.548066 C563.017,326.821066 557.778,321.697066 553.997,315.171066 C550.21,308.650066 548.319,301.311066 548.319,293.153066 C548.319,284.996066 550.21,277.312066 553.997,270.786066 C557.778,264.265066 563.017,259.196066 569.712,255.584066 L569.712,255.594066 Z M743.039,232.004066 L688.026,354.317066 L711.429,354.317066 L754.04,254.721066 L796.825,354.317066 L820.578,354.317066 L765.39,232.004066 L743.034,232.004066 L743.039,232.004066 Z M991.376,232.004066 L943.701,259.765066 L895.153,232.004066 L876.464,232.004066 L876.464,354.317066 L898.122,354.317066 L898.246,258.867066 L943.636,284.731066 L988.502,258.867066 L988.756,354.317066 L1010.24,354.317066 L1010.06,232.004066 L991.376,232.004066 Z M1076.42,354.317066 L1099.13,354.317066 L1099.13,232.004066 L1076.42,232.004066 L1076.42,354.317066 Z M1256.82,314.827066 L1189.41,232.004066 L1170.72,232.004066 L1170.72,354.317066 L1193.25,354.317066 L1193.25,271.495066 L1260.67,354.317066 L1279.35,354.317066 L1279.35,232.004066 L1256.82,232.004066 L1256.82,314.827066 Z M1434.96,329.854066 C1427.74,334.050066 1419.36,336.146066 1409.81,336.146066 C1401.31,336.146066 1393.71,334.285066 1387.02,330.553066 C1380.32,326.826066 1375.08,321.702066 1371.3,315.176066 C1367.51,308.655066 1365.62,301.316066 1365.62,293.158066 C1365.62,285.001066 1367.51,277.317066 1371.3,270.791066 C1375.08,264.270066 1380.32,259.201066 1387.02,255.589066 C1393.71,251.982066 1401.37,250.170066 1409.98,250.170066 C1423.14,250.170066 1434.37,254.830066 1443.69,264.150066 L1458,250.170066 C1452.3,243.649066 1445.26,238.700066 1436.87,235.317066 C1428.49,231.940066 1419.17,230.248066 1408.93,230.248066 C1396.36,230.248066 1385.03,232.957066 1374.96,238.371066 C1364.89,243.789066 1357,251.273066 1351.3,260.823066 C1345.59,270.377066 1342.74,281.149066 1342.74,293.148066 C1342.74,305.147066 1345.6,315.924066 1351.3,325.474066 C1357,335.028066 1364.86,342.512066 1374.88,347.925066 C1384.89,353.344066 1396.13,356.048066 1408.58,356.048066 C1417.43,356.048066 1426.05,354.706066 1434.43,352.032066 C1442.81,349.352066 1450.15,345.511066 1456.44,340.501066 L1456.44,291.751066 L1434.96,291.751066 L1434.96,329.844066 L1434.96,329.854066 Z" id="Shape" fill="url(#linearGradient-1)"></path>
            <path d="M18.4040995,57.9571663 C12.0503995,57.9571663 5.87156951,54.6626663 2.46645951,48.7690663 C-2.60998049,39.9828663 0.402630513,28.7479663 9.19529951,23.6752663 L45.9611995,2.4641663 C54.7538995,-2.6086137 65.9969995,0.401970305 71.0732995,9.1880763 C76.1497995,17.9742663 73.1371995,29.2090663 64.3444995,34.2818663 L27.5785995,55.4930663 C24.6837995,57.1630663 21.5225995,57.9571663 18.4040995,57.9571663 Z" id="Path" fill="url(#linearGradient-2)" fill-rule="nonzero"></path>
            <path d="M294.137,177.460066 L36.7692995,325.942066 L36.7694995,262.307066 L238.678,145.754066 L202.095,124.648066 L9.19439951,235.793066 C3.50655951,239.074066 2.84217094e-14,245.138066 2.84217094e-14,251.701066 L2.84217094e-14,357.760066 C2.84217094e-14,364.323066 3.50630951,370.387066 9.19415951,373.669066 C12.0383995,375.310066 15.2116995,376.130066 18.3859995,376.130066 C21.5593995,376.130066 24.7339995,375.309066 27.5774995,373.669066 L340.096,193.369066 C345.784,190.088066 349.288,184.023066 349.288,177.460066 C349.288,170.898066 345.784,164.833066 340.096,161.552066 L248.491,108.702066 C248.295,108.584066 248.097,108.470066 247.897,108.360066 L156.262,55.4929663 C150.574,52.2116663 143.567,52.2116663 137.879,55.4929663 L9.19475951,129.734066 C0.402144513,134.807066 -2.61046049,146.041066 2.46596951,154.828066 C5.87108951,160.721066 12.0499995,164.016066 18.4036995,164.016066 C21.5220995,164.015066 24.6833995,163.222066 27.5780995,161.552066 L147.07,92.6135663 L294.137,177.460066 Z" id="Path" fill="url(#linearGradient-3)" fill-rule="nonzero"></path>
            <path d="M294.137,177.460066 L36.7692995,325.942066 L36.7694995,262.307066 L238.678,145.754066 L202.095,124.648066 L9.19439951,235.793066 C3.50655951,239.074066 2.84217094e-14,245.138066 2.84217094e-14,251.701066 L2.84217094e-14,357.760066 C2.84217094e-14,364.323066 3.50630951,370.387066 9.19415951,373.669066 C12.0383995,375.310066 15.2116995,376.130066 18.3859995,376.130066 C21.5593995,376.130066 24.7339995,375.309066 27.5774995,373.669066 L340.096,193.369066 C345.784,190.088066 349.288,184.023066 349.288,177.460066 C349.288,170.898066 345.784,164.833066 340.096,161.552066 L248.491,108.702066 C248.295,108.584066 248.097,108.470066 247.897,108.360066 L156.262,55.4929663 C150.574,52.2116663 143.567,52.2116663 137.879,55.4929663 L9.19475951,129.734066 C0.402144513,134.807066 -2.61046049,146.041066 2.46596951,154.828066 C5.87108951,160.721066 12.0499995,164.016066 18.4036995,164.016066 C21.5220995,164.015066 24.6833995,163.222066 27.5780995,161.552066 L147.07,92.6135663 L294.137,177.460066 Z" id="Path" fill="url(#radialGradient-4)" fill-rule="nonzero"></path>
            <path d="M294.137,177.460066 L36.7692995,325.942066 L36.7694995,262.307066 L48.4109995,255.587066 L27.5759995,225.201066 L9.19439951,235.793066 C3.50655951,239.074066 2.84217094e-14,245.138066 2.84217094e-14,251.701066 L2.84217094e-14,357.760066 C2.84217094e-14,364.323066 3.50631951,370.387066 9.19415951,373.669066 C12.0383995,375.310066 15.2116995,376.130066 18.3859995,376.130066 C21.5593995,376.130066 24.7339995,375.309066 27.5774995,373.669066 L340.096,193.369066 C345.784,190.088066 349.288,184.023066 349.288,177.460066 C349.288,170.898066 345.784,164.833066 340.096,161.552066 L248.491,108.702066 C248.295,108.584066 248.097,108.470066 247.897,108.360066 L156.262,55.4929663 C150.574,52.2116663 143.567,52.2116663 137.879,55.4929663 L9.19475951,129.734066 C0.402144513,134.807066 -2.61046049,146.041066 2.46596951,154.828066 C5.87108951,160.721066 12.0499995,164.016066 18.4036995,164.016066 C21.5220995,164.015066 24.6833995,163.222066 27.5780995,161.552066 L147.07,92.6135663 L294.137,177.460066 Z" id="Path" fill="url(#linearGradient-5)" fill-rule="nonzero"></path>
        </g>
    </g>
</svg>